<?xml version="1.0" standalone="no"?>
<!DOCTYPE svg PUBLIC "-//W3C//DTD SVG 20010904//EN"
 "http://www.w3.org/TR/2001/REC-SVG-20010904/DTD/svg10.dtd">
<svg version="1.0" xmlns="http://www.w3.org/2000/svg"
 width="350.000000pt" height="350.000000pt" viewBox="0 0 350.000000 350.000000"
 preserveAspectRatio="xMidYMid meet">
<metadata>
Created by potrace 1.10, written by Peter Selinger 2001-2011
</metadata>
<g transform="translate(0.000000,299.000000) scale(0.100000,-0.100000)"
fill="#000000" stroke="none">
<path d="M1560 2780 c-8 -5 -46 -19 -85 -31 -38 -11 -86 -29 -105 -38 -73 -38
-162 -68 -480 -161 -52 -15 -108 -35 -125 -44 -17 -9 -54 -16 -87 -16 -66 0
-88 -7 -88 -26 0 -8 -7 -17 -15 -20 -24 -10 -17 -31 12 -37 70 -14 168 -48
187 -66 12 -11 46 -29 76 -40 109 -42 191 -86 196 -106 5 -22 -21 -147 -38
-179 -10 -18 -21 -68 -48 -221 -7 -38 -6 -54 5 -72 10 -14 15 -48 15 -95 0
-45 8 -96 19 -133 11 -33 25 -80 33 -105 11 -38 20 -48 58 -68 36 -17 50 -33
70 -75 14 -28 42 -79 62 -112 37 -62 68 -167 68 -234 0 -36 -3 -39 -52 -62
-83 -38 -240 -128 -268 -153 -29 -26 -108 -66 -133 -66 -14 0 -264 -162 -277
-179 -3 -4 -21 -18 -40 -31 -19 -14 -43 -33 -52 -42 -14 -14 -28 -16 -61 -12
-30 4 -46 2 -54 -7 -16 -20 -176 -339 -172 -343 2 -2 21 -1 41 1 32 4 35 7 26
22 -8 14 -2 36 33 107 24 49 57 107 73 129 16 22 31 42 33 44 8 12 35 -28 44
-66 7 -25 20 -48 31 -54 17 -9 18 -8 9 9 -6 11 -7 22 -4 26 3 3 1 6 -5 6 -7 0
-12 7 -12 15 0 8 -5 24 -12 35 -7 10 -10 21 -8 22 3 2 37 25 75 51 39 26 101
69 140 96 38 27 71 49 72 48 1 -1 -7 -28 -18 -59 -10 -32 -21 -74 -24 -95 -3
-21 -14 -76 -25 -123 -11 -47 -22 -98 -25 -114 -5 -21 -10 -27 -25 -23 -12 3
-20 -2 -23 -14 -8 -29 -23 -23 -34 14 -5 17 -15 31 -21 29 -11 -2 -16 11 -13
31 1 5 -3 6 -8 3 -5 -4 -12 2 -14 11 -3 10 -5 5 -6 -12 0 -16 8 -41 19 -55 23
-30 25 -40 6 -40 -18 0 -45 45 -81 135 -16 39 -32 74 -36 78 -8 10 56 -227 66
-243 9 -14 35 -12 67 4 18 10 28 11 31 3 2 -7 16 -7 48 2 115 32 106 28 82 36
-26 8 -30 37 -13 95 6 19 15 67 21 105 16 110 37 172 86 256 39 68 49 79 73
79 15 0 45 12 66 26 21 15 44 27 50 28 19 3 44 27 38 37 -3 5 2 12 11 15 18 7
50 -18 71 -56 29 -54 28 -53 75 -37 24 8 75 17 113 18 l70 4 35 -61 c20 -34
65 -96 100 -138 l64 -76 31 20 c17 11 61 36 97 56 36 19 109 73 162 120 80 70
97 81 97 63 0 -25 -34 -85 -53 -92 -7 -3 -47 -32 -88 -65 -56 -44 -87 -62
-120 -67 -43 -7 -139 -50 -139 -61 0 -4 23 -4 50 0 38 5 50 4 49 -6 -2 -22
-127 -131 -151 -132 -21 -1 -23 -8 -34 -91 -12 -90 -11 -134 2 -56 4 22 11 41
17 41 6 0 7 -16 3 -39 -3 -22 -2 -42 3 -45 10 -7 21 41 21 95 l0 39 43 -6 c23
-4 46 -10 52 -15 5 -5 22 -9 38 -9 32 0 127 -29 127 -39 0 -3 -6 -18 -14 -33
-11 -21 -12 -28 -1 -32 16 -6 35 13 35 37 0 10 6 39 14 65 8 26 33 110 56 187
23 77 51 165 62 195 28 79 35 106 49 190 7 41 18 90 26 109 16 40 17 112 2
165 -9 31 -8 46 5 75 16 38 74 273 100 406 18 96 53 377 66 541 27 341 30 359
47 372 22 16 28 15 48 -5 14 -13 16 -27 11 -72 -6 -49 -5 -53 6 -32 7 13 21
29 30 35 14 9 21 6 33 -12 9 -12 24 -22 34 -22 27 0 102 53 96 68 -2 7 0 21 7
31 10 17 14 17 46 4 19 -8 36 -12 38 -10 7 7 -36 31 -99 56 -32 13 -69 32 -82
43 -14 11 -28 17 -33 14 -4 -2 -26 4 -47 15 -22 11 -31 16 -20 13 52 -16 56
-14 15 11 -25 15 -47 30 -50 34 -8 13 -47 31 -66 31 -10 0 -61 20 -113 44
-140 63 -212 93 -246 100 -46 10 -85 27 -85 38 0 5 -4 7 -10 3 -15 -9 -60 6
-60 21 0 16 11 18 28 4 7 -5 6 -3 -2 6 -17 20 -95 29 -116 14z m108 -76 c29
-13 56 -24 61 -24 4 0 45 -18 90 -40 45 -22 84 -40 87 -40 6 0 63 -25 182 -81
46 -22 87 -39 92 -39 15 0 17 -24 3 -38 -7 -7 -13 -25 -13 -39 0 -14 -7 -48
-15 -76 -14 -51 -17 -78 -31 -272 -4 -55 -11 -105 -16 -111 -4 -6 -5 -19 -2
-28 5 -14 -2 -87 -22 -206 -11 -70 -15 -103 -18 -197 -4 -95 -27 -193 -46
-193 -8 0 4 77 20 125 16 50 -1 154 -31 181 -16 14 -24 15 -44 6 -19 -9 -25
-9 -25 1 0 6 -3 30 -7 52 -6 37 -5 39 10 26 15 -12 20 -10 42 13 33 36 31 69
-8 142 -51 96 -60 105 -108 109 -84 8 -154 25 -179 44 -14 10 -50 20 -80 23
-30 3 -56 11 -58 17 -2 6 -8 9 -13 6 -13 -9 -91 14 -111 32 -27 24 -22 43 10
43 l27 1 -30 14 c-16 7 -23 14 -15 15 11 1 9 4 -5 10 -11 5 -55 6 -97 3 l-78
-6 0 31 c0 31 -1 31 -20 15 -11 -10 -20 -23 -20 -31 0 -7 -10 -23 -23 -35 -26
-24 -45 -63 -25 -51 7 4 25 22 41 39 21 23 35 31 53 27 26 -5 32 -18 12 -25
-7 -2 22 -2 65 0 l77 5 0 -34 c0 -27 6 -37 30 -51 39 -24 38 -44 -2 -38 -4 0
-10 -14 -14 -32 -6 -31 -59 -87 -86 -91 -7 -1 -18 -5 -24 -9 -15 -9 -30 10
-39 52 -5 23 -4 31 4 27 6 -4 11 -3 11 3 0 5 -5 13 -10 16 -13 8 -30 -37 -30
-81 0 -30 3 -34 28 -35 15 -1 30 -1 35 0 20 3 4 -19 -18 -25 -28 -7 -65 18
-65 43 0 7 -4 13 -10 13 -17 0 -11 -17 16 -49 25 -30 25 -31 5 -31 -12 0 -30
9 -41 20 -11 11 -20 16 -20 10 0 -5 9 -19 20 -30 33 -33 89 -16 175 53 64 52
76 67 74 92 -2 34 1 45 12 45 6 0 8 -7 5 -16 -5 -14 -4 -15 9 -4 9 7 18 11 20
8 9 -8 -24 -76 -41 -86 -13 -7 -11 -13 16 -35 36 -31 70 -42 103 -33 39 9 109
66 120 97 6 16 15 29 19 29 11 0 10 -18 -2 -41 -7 -12 -7 -19 -1 -19 5 0 13 9
16 21 6 18 12 20 39 15 83 -17 106 -18 121 -6 9 7 17 11 18 9 1 -2 20 -38 40
-79 21 -41 35 -66 32 -55 -5 15 -3 17 5 9 6 -6 10 -31 8 -55 -3 -44 -3 -44
-38 -41 -19 2 -61 15 -94 29 -55 23 -62 24 -135 12 -42 -7 -93 -20 -113 -30
-47 -24 -135 -25 -166 -3 -27 19 -146 54 -184 54 -31 0 -72 -16 -107 -42 -33
-25 -43 -14 -35 40 7 51 27 96 46 109 7 4 30 29 51 56 52 64 23 62 -36 -3 -63
-68 -77 -99 -77 -164 0 -45 3 -56 19 -61 21 -6 66 8 76 24 9 15 77 13 153 -3
76 -16 96 -31 30 -22 -72 11 -58 1 27 -19 42 -10 78 -22 81 -27 3 -4 -4 -20
-15 -34 -12 -15 -21 -33 -21 -41 0 -28 -34 -73 -67 -88 -45 -22 -136 -30 -164
-15 -35 19 -67 61 -79 107 -7 23 -18 44 -26 47 -8 3 -14 16 -14 28 0 13 -5 30
-11 38 -8 11 -9 6 -5 -22 2 -21 0 -40 -5 -43 -5 -4 -9 7 -9 24 0 16 -4 33 -10
36 -5 3 -10 -1 -10 -9 0 -9 -4 -16 -8 -16 -13 0 -32 47 -32 78 0 42 39 210 55
243 8 15 15 41 15 58 0 26 16 53 37 63 11 4 96 179 90 184 -5 6 -81 -97 -117
-159 -12 -21 -25 -36 -27 -33 -10 10 55 123 116 203 57 75 68 84 118 100 69
22 81 15 111 -64 28 -73 47 -84 157 -91 93 -5 95 4 5 19 -88 14 -118 32 -141
85 -11 24 -18 48 -15 53 3 5 -10 16 -30 26 -30 14 -43 15 -85 5 -66 -16 -90
-37 -155 -136 -33 -48 -63 -84 -73 -84 -9 0 -29 8 -46 18 -16 10 -61 31 -100
46 -70 28 -129 60 -152 82 -6 6 -32 17 -57 24 -25 7 -46 17 -46 22 0 5 6 8 13
7 21 -4 101 12 122 25 11 7 52 22 90 34 176 53 252 75 280 79 17 2 68 20 115
39 134 55 184 75 200 79 8 2 15 4 15 5 0 1 20 7 45 14 51 14 55 13 128 -20z
m213 -49 c30 -14 43 -22 29 -19 -26 7 -100 43 -89 44 4 0 31 -11 60 -25z m299
-135 c43 -22 54 -35 18 -21 -32 12 -108 52 -108 57 0 5 43 -12 90 -36z m65
-89 c3 -5 1 -12 -5 -16 -5 -3 -11 -16 -11 -28 -1 -17 -2 -18 -6 -4 -5 20 -23
23 -24 5 0 -7 -4 -4 -9 7 -12 30 38 63 55 36z m73 -21 c51 -27 82 -55 82 -74
0 -10 9 -16 23 -16 l22 0 -25 -20 c-52 -41 -102 -38 -74 5 16 24 16 24 -19 18
-31 -5 -36 -2 -51 27 -17 35 -20 62 -9 73 9 10 9 9 51 -13z m-727 -391 c4 -7
5 -17 3 -21 -7 -10 -64 -11 -64 0 0 4 -14 13 -32 21 -27 12 -29 15 -13 21 26
9 96 -5 106 -21z m70 -19 c26 -14 24 -32 -6 -60 -27 -26 -32 -25 -35 5 -7 63
3 75 41 55z m-101 -65 c0 -30 -3 -35 -24 -35 -13 0 -29 6 -35 14 -18 22 3 56
34 56 22 0 25 -4 25 -35z m288 -214 c56 -11 67 -23 67 -71 0 -55 -11 -59 -45
-18 -44 54 -90 78 -141 77 -24 -1 -35 -3 -24 -6 27 -6 78 -25 90 -35 48 -36
85 -72 78 -77 -4 -3 -9 -21 -10 -39 -2 -45 -17 -59 -72 -67 -74 -10 -126 8
-157 55 -26 39 -25 60 2 60 16 0 94 37 94 45 0 6 -32 -6 -47 -17 -6 -5 -28
-11 -48 -14 -27 -3 -37 0 -42 13 -4 9 -15 25 -26 36 -24 24 -15 33 53 51 61
16 163 19 228 7z m-813 -68 c9 -16 14 -20 11 -10 -3 10 -2 15 3 12 16 -9 -11
-145 -28 -145 -5 0 -8 30 -7 68 1 37 -3 75 -8 85 -14 29 12 20 29 -10z m75
-34 c0 -43 23 -92 55 -117 15 -12 24 -22 19 -22 -4 0 -3 -5 2 -10 13 -13 167
3 207 21 30 13 73 73 91 128 21 58 44 48 91 -38 59 -107 74 -116 193 -116 l97
0 32 55 c18 30 36 60 40 67 4 7 20 15 35 18 26 7 26 6 33 -67 7 -79 -4 -195
-20 -190 -13 4 -31 -64 -39 -145 -11 -109 -44 -283 -65 -345 -22 -64 -19 -68
45 -68 19 0 34 -1 34 -2 -1 -2 -9 -32 -19 -68 -17 -62 -22 -69 -105 -143 -49
-42 -116 -93 -149 -113 -34 -19 -77 -46 -96 -60 -19 -13 -37 -24 -41 -24 -12
0 -117 143 -144 196 -14 28 -32 75 -40 105 -7 30 -24 84 -37 121 -20 57 -22
71 -11 88 6 11 12 29 12 41 0 15 4 19 16 15 17 -6 -6 37 -52 100 -22 30 -22
32 -4 27 16 -4 19 -2 14 11 -3 9 -10 16 -14 16 -5 0 -32 47 -61 105 -37 74
-58 105 -70 105 -14 0 -24 19 -43 79 -31 98 -41 166 -32 226 8 49 26 52 26 4z
m-22 -230 c-3 -23 -4 -23 -21 8 -24 44 -22 62 4 37 13 -13 19 -31 17 -45z
m872 -456 c7 -21 10 -56 8 -78 -3 -37 -5 -40 -37 -43 -32 -3 -33 -2 -28 25 11
60 32 133 39 133 4 0 12 -17 18 -37z m-642 -198 c7 -44 7 -63 -1 -72 -7 -6
-45 -14 -85 -17 -39 -2 -77 -8 -83 -11 -15 -10 -80 66 -69 80 5 6 36 24 67 39
32 15 66 32 76 38 30 15 29 5 -3 -53 -30 -55 -38 -85 -20 -74 6 4 8 10 5 15
-3 4 -1 10 3 12 5 1 26 39 47 83 44 90 42 91 63 -40z m535 -316 c-9 -29 -33
-108 -55 -173 -21 -65 -38 -127 -38 -137 0 -11 -2 -19 -5 -19 -3 0 -36 15 -73
34 -37 18 -86 39 -109 46 -24 7 -43 16 -43 20 0 4 16 20 36 35 20 15 51 51 70
81 26 41 47 60 87 79 28 14 72 41 96 61 24 19 45 33 47 31 2 -2 -4 -28 -13
-58z"/>
<path d="M1820 2432 c0 -5 16 -16 35 -25 71 -34 187 -162 221 -244 14 -33 33
-41 21 -8 -4 8 -5 17 -4 19 1 2 -5 12 -15 22 -9 11 -18 27 -20 38 -1 10 -18
34 -35 54 -18 20 -33 39 -33 42 0 3 -14 14 -30 24 -17 9 -28 21 -25 26 4 7
-29 21 -39 17 -2 -1 -12 5 -22 14 -23 19 -54 31 -54 21z"/>
<path d="M1644 2399 c-3 -5 10 -9 28 -9 18 0 58 -7 88 -15 30 -8 66 -15 80
-15 14 0 37 -7 53 -14 15 -8 27 -11 27 -6 0 17 -54 37 -135 50 -109 18 -134
20 -141 9z"/>
<path d="M1246 2333 c-20 -31 -36 -61 -36 -66 0 -13 45 44 64 81 29 57 10 47
-28 -15z"/>
<path d="M1630 2369 c0 -8 55 -29 78 -29 9 0 34 -8 56 -19 23 -10 49 -21 59
-24 37 -13 16 -28 -35 -27 -183 6 -176 -15 8 -25 113 -7 155 -13 197 -30 35
-14 -4 34 -48 59 -85 49 -315 119 -315 95z"/>
<path d="M1974 2126 c36 -54 66 -102 66 -107 0 -11 -55 24 -65 41 -4 6 -16 10
-29 10 -12 0 -59 18 -105 40 -55 27 -97 40 -124 40 -23 1 -53 7 -67 15 -29 17
-40 18 -40 6 0 -5 13 -12 30 -16 44 -10 47 -25 5 -25 -22 0 -34 -4 -30 -10 3
-5 44 -10 91 -10 86 0 140 -17 187 -58 12 -10 17 -11 17 -3 0 16 38 5 65 -19
11 -9 35 -24 52 -33 l33 -15 -6 26 c-23 104 -48 167 -76 189 -7 6 -26 15 -42
19 -28 7 -26 3 38 -90z"/>
<path d="M2024 2181 c22 -26 47 -111 53 -184 4 -50 9 -65 18 -57 28 24 -36
257 -71 257 -12 0 -12 -3 0 -16z"/>
<path d="M1710 2085 c0 -2 19 -9 43 -15 23 -6 68 -22 100 -35 31 -14 57 -23
57 -21 0 14 -134 76 -164 76 -20 0 -36 -2 -36 -5z"/>
<path d="M1920 2022 c1 -4 19 -20 41 -37 22 -16 53 -40 68 -52 16 -13 35 -23
41 -23 21 0 -20 40 -63 61 -21 11 -35 24 -32 28 3 5 -9 14 -25 20 -17 5 -30 7
-30 3z"/>
<path d="M1414 1479 c-14 -24 -22 -83 -13 -105 7 -21 15 -24 62 -24 33 0 61 6
76 16 13 10 39 17 59 18 46 1 52 21 7 24 -23 2 -45 -5 -66 -20 -20 -14 -33
-19 -36 -12 -10 28 -29 45 -46 38 -24 -9 -21 -32 6 -37 21 -4 21 -4 1 -6 -36
-2 -53 28 -45 77 9 43 7 50 -5 31z"/>
<path d="M1320 1271 c0 -30 68 -41 235 -40 92 0 165 5 165 10 0 5 -51 9 -112
10 -120 0 -242 11 -270 24 -11 4 -18 3 -18 -4z"/>
<path d="M1891 1168 c-49 -71 -112 -125 -191 -164 -129 -62 -224 -55 -312 24
-24 21 -38 29 -38 20 0 -39 107 -96 197 -105 51 -6 61 -3 150 43 104 53 180
119 213 185 27 51 18 50 -19 -3z"/>
<path d="M1382 1177 c2 -6 20 -20 39 -30 39 -21 141 -19 162 2 10 11 7 12 -13
5 -40 -12 -96 -7 -146 15 -29 13 -44 16 -42 8z"/>
<path d="M1734 335 c-8 -20 -12 -40 -9 -44 3 -5 -2 -25 -10 -45 -23 -54 -20
-103 8 -117 19 -11 20 -10 9 3 -13 16 -9 43 22 170 16 67 3 88 -20 33z"/>
<path d="M2232 2300 c-1 -8 -9 -94 -17 -190 -16 -182 -22 -240 -50 -453 -19
-148 -15 -196 6 -62 7 50 15 79 16 65 6 -44 -57 -336 -123 -574 -7 -28 -11
-52 -9 -54 9 -9 36 70 55 161 10 51 28 126 39 167 32 124 43 199 46 325 2 66
8 156 14 200 21 153 32 300 29 365 -2 36 -5 58 -6 50z"/>
<path d="M2200 2298 c0 -3 -11 -124 -25 -269 -31 -328 -82 -710 -105 -789 -16
-57 -10 -59 10 -4 22 62 40 178 79 514 34 283 55 539 47 548 -3 3 -6 3 -6 0z"/>
<path d="M2217 1813 c-10 -36 -18 -93 -13 -93 3 0 10 18 16 41 6 22 14 47 17
55 3 8 0 14 -5 14 -6 0 -13 -8 -15 -17z"/>
<path d="M2141 1203 c-1 -29 3 -53 9 -53 12 0 12 44 0 80 -6 20 -8 14 -9 -27z"/>
<path d="M2013 914 c0 -7 4 -14 8 -14 4 0 21 -12 36 -26 15 -14 53 -42 83 -63
57 -37 78 -53 139 -107 20 -18 52 -40 71 -51 55 -31 62 -52 56 -188 -4 -112
-4 -115 6 -45 5 41 12 82 16 90 3 8 4 34 3 58 -2 23 -1 42 1 42 1 0 23 -7 48
-14 133 -42 154 -71 44 -62 -39 3 -62 1 -59 -4 11 -18 87 -31 139 -25 34 5 72
1 115 -10 35 -9 75 -15 90 -15 50 4 58 0 119 -56 60 -54 62 -55 62 -29 0 20
-15 41 -55 80 l-56 53 -77 -2 c-71 -1 -83 2 -151 37 -95 49 -165 75 -219 80
-23 2 -52 13 -64 23 -22 19 -50 43 -118 103 -19 17 -40 31 -46 31 -6 0 -17 7
-24 15 -13 16 -97 75 -106 75 -3 0 -18 9 -33 19 -22 16 -28 17 -28 5z"/>
<path d="M1314 590 c2 -19 14 -80 25 -135 15 -69 24 -154 28 -276 6 -172 6
-176 27 -172 17 4 22 12 22 44 1 21 -2 39 -7 39 -5 0 -9 18 -9 39 0 31 4 41
20 46 11 3 20 12 20 20 0 16 -73 265 -106 360 -17 48 -23 59 -20 35z"/>
<path d="M847 503 c-20 -43 -43 -96 -51 -118 -8 -22 -29 -78 -46 -124 -24 -67
-31 -103 -33 -170 -1 -60 2 -85 11 -88 8 -3 12 11 12 50 0 31 6 88 14 129 15
76 79 268 102 303 21 33 45 95 36 95 -4 0 -24 -35 -45 -77z"/>
<path d="M1083 486 c-29 -24 -60 -96 -42 -96 5 0 20 17 34 38 14 20 32 47 41
60 22 29 3 28 -33 -2z"/>
<path d="M782 478 c-16 -20 -48 -113 -57 -169 -10 -61 -2 -49 40 64 36 95 42
135 17 105z"/>
<path d="M2592 455 c-23 -13 -68 -44 -100 -68 -31 -24 -66 -49 -77 -55 -32
-16 -170 -312 -154 -326 2 -2 24 0 49 4 25 4 37 8 28 9 -10 0 -18 9 -18 19 0
14 -2 15 -10 2 -8 -12 -10 -11 -10 8 0 12 5 22 10 22 6 0 10 6 10 13 0 21 48
134 75 176 26 42 173 152 226 170 24 8 35 17 35 31 0 26 -12 25 -64 -5z"/>
<path d="M1390 431 c0 -5 23 -31 51 -59 30 -29 49 -54 45 -61 -5 -8 -13 -8
-26 -1 -16 8 -18 7 -14 -4 3 -8 12 -17 20 -20 11 -4 13 -15 9 -43 -5 -34 -4
-33 14 14 10 28 22 57 26 62 3 6 -19 36 -49 66 -52 52 -76 67 -76 46z"/>
<path d="M2831 222 c-1 -17 30 -114 35 -109 2 2 -4 30 -15 63 -10 32 -19 53
-20 46z"/>
<path d="M1961 120 c-19 -36 -43 -77 -53 -92 -16 -23 -17 -28 -4 -28 23 0 45
28 72 89 38 85 26 109 -15 31z"/>
<path d="M335 98 c14 -65 13 -73 -14 -79 -20 -5 -15 -7 21 -8 l46 -1 -13 49
c-15 57 -22 71 -37 71 -7 0 -8 -12 -3 -32z"/>
<path d="M2921 68 c-1 -39 -17 -60 -27 -34 -8 22 -19 20 -21 -4 -1 -16 4 -20
31 -20 31 0 32 1 28 38 -5 53 -10 63 -11 20z"/>
<path d="M1615 40 c-4 -6 -17 -15 -29 -20 -19 -8 -19 -9 7 -9 16 -1 30 5 34
14 7 19 -2 31 -12 15z"/>
<path d="M2688 13 c29 -2 74 -2 100 0 26 2 2 3 -53 3 -55 0 -76 -1 -47 -3z"/>
</g>
</svg>
